<?xml version="1.0" encoding="UTF-8"?><svg id="a" xmlns="http://www.w3.org/2000/svg" width="69mm" height="16mm" viewBox="0 0 195.59 45.35"><g id="b"><path id="c" d="m131.37,39.75l.83,2.53h-1.67l.84-2.53Zm-1.55,4.73l.43-1.3h2.25l.43,1.3h1.12l-2.18-6.25h-1l-2.17,6.25h1.12Zm-3.75-6.25v4.3l-2.58-4.3h-.9v6.25h1.01v-4.25l2.56,4.25h.93v-6.25h-1.01Zm-7.9,0h-1.05v6.25h3.83v-.9h-2.78v-5.35Zm-4.46-.49h.93l.93-1.16h-1.14l-.73,1.16Zm1.05.49h-1.05v6.25h1.05v-6.25Zm-5.52,5.35h-1.06v-4.43h1.06c.9,0,1.3.55,1.3,1.84v.74c0,1.29-.4,1.85-1.3,1.85m0,.9c1.4,0,2.35-.75,2.35-2.75v-.74c0-2-.94-2.75-2.35-2.75h-2.11v6.25h2.11Zm-10.98-6.75h.93l.93-1.16h-1.14l-.72,1.16Zm.43,2.02l.84,2.53h-1.67l.83-2.53Zm-1.55,4.73l.43-1.3h2.26l.43,1.3h1.11l-2.18-6.25h-1l-2.18,6.25h1.13Zm-3.75-6.25v4.3l-2.58-4.3h-.9v6.25h1.01v-4.25l2.55,4.25h.93v-6.25h-1.01Zm-6.85-.44l1.25-1.28h-1.06l-.64.68-.64-.68h-1.06l1.25,1.28h.91Zm-2.37.44v6.25h3.83v-.9h-2.78v-1.88h2.51v-.91h-2.51v-1.65h2.78v-.92h-3.83Zm-3.3,0v4.3l-2.58-4.3h-.9v6.25h1.01v-4.25l2.56,4.25h.93v-6.25h-1.01Zm-8.21-.49h.93l.93-1.16h-1.14l-.72,1.16Zm.43,2.02l.83,2.53h-1.67l.83-2.53Zm-1.55,4.73l.43-1.3h2.26l.43,1.3h1.11l-2.18-6.25h-1l-2.18,6.25h1.13Zm-5.89-3.44v-1.9h1.01c.89,0,1.32.25,1.32.95s-.43.94-1.32.94h-1.01Zm3.58,3.44l-1.32-2.71c.72-.23,1.19-.92,1.13-1.68,0-1.24-.86-1.87-2.3-1.87h-2.13v6.25h1.05v-2.54h1.22l1.21,2.54h1.15Zm-10.36-6.25h-1.04v6.25h1.05v-2.78h2.4v2.78h1.05v-6.25h-1.05v2.56h-2.4v-2.56Zm-2.91,1.94c-.06-1.18-1.06-2.08-2.24-2.02-.01,0-.03,0-.04,0-1.4,0-2.33.84-2.33,2.81v.8c0,1.96.94,2.81,2.33,2.81,1.15.1,2.16-.76,2.26-1.91,0-.04,0-.07,0-.11h-1c-.04.65-.59,1.14-1.24,1.1,0,0-.01,0-.02,0-.83,0-1.29-.56-1.29-1.89v-.8c0-1.35.45-1.89,1.29-1.89.65-.04,1.21.45,1.26,1.1h1.01Z"/><path id="d" d="m185.4,25.05l-8.51-13.34,7.06-9h-4.6l-8.22,10.78V2.72h-3.76v22.34h3.76v-5.96l3.3-4.24,6.48,10.2h4.5Zm-35.35-12.3v-6.77h3.6c3.17,0,4.73.87,4.73,3.4s-1.55,3.37-4.73,3.37h-3.6Zm12.79,12.3l-4.76-9.68c2.57-.82,4.25-3.3,4.04-5.99,0-4.43-3.07-6.67-8.22-6.67h-7.61v22.34h3.75v-9.06h4.34l4.31,9.06h4.15Zm-34.83-12.59c0-4.82,1.62-6.77,4.6-6.77s4.63,1.94,4.63,6.77v2.85c0,4.82-1.65,6.77-4.63,6.77s-4.6-1.94-4.6-6.77v-2.85Zm12.98,2.85v-2.85c0-7.02-3.37-10.03-8.38-10.03s-8.35,3.01-8.35,10.03v2.85c0,7.02,3.37,10.04,8.35,10.04s8.38-3.01,8.38-10.04m-33.67-6.51l4.89,16.25h3.66l5.28-22.34h-4.01l-3.43,16.06-4.66-16.06h-3.46l-4.56,15.96-3.43-15.96h-4.01l5.28,22.34h3.62l4.85-16.25Z"/><path id="e" d="m61.63,2.72v22.34h3.75v-9.08h5.37l1.16-3.23h-6.53v-6.75h8.83l1.11-3.27h-13.69Z"/><path id="f" d="m77.63,2.72l-1.1,3.27h4.91v19.07h3.76V5.99h6.41v-3.27h-13.98Z"/><path id="g" d="m25.1,12.75v-6.76h3.59c3.17,0,4.73.87,4.73,3.4s-1.55,3.37-4.73,3.37h-3.59Zm12.79,12.3l-4.76-9.68c2.57-.82,4.25-3.29,4.05-5.99,0-4.43-3.08-6.67-8.22-6.67h-7.61v22.34h3.76v-9.06h4.34l4.31,9.06h4.14Zm-20.5-15.41c-.74-4.86-3.69-7.22-8.13-7.22-4.99,0-8.35,3.01-8.35,10.04v2.85c0,7.02,3.37,10.03,8.35,10.03,4.44,0,7.35-2.2,8.09-7.22h-3.59c-.58,2.72-1.94,3.95-4.5,3.95-2.98,0-4.6-2.01-4.6-6.77v-2.84c0-4.82,1.62-6.77,4.6-6.77,2.46,0,3.92,1.23,4.5,3.95h3.63Z"/><path id="h" d="m49.39,8.14l2.98,9.03h-5.96l2.98-9.03Zm-5.53,16.9l1.52-4.63h8.06l1.52,4.63h3.98l-7.77-22.34h-3.56l-7.77,22.34h4.02Z"/><path id="i" d="m191,3.73v-.81h.51c.35,0,.55.12.55.38,0,.32-.18.43-.61.43h-.45Zm0,1.76v-1.13h.45l.68,1.13h.84l-.79-1.26c.4-.14.65-.52.63-.94,0-.48-.34-.99-1.22-.99h-1.33v3.18h.73Zm-1.79-1.55c0-1.29,1.04-2.33,2.33-2.33,1.29,0,2.33,1.04,2.33,2.33,0,1.29-1.04,2.33-2.33,2.33,0,0,0,0,0,0-1.28,0-2.32-1.04-2.33-2.33m-.8,0c0,1.73,1.41,3.13,3.15,3.13s3.13-1.41,3.13-3.15c0-1.73-1.41-3.13-3.15-3.13-1.73,0-3.13,1.41-3.13,3.15"/></g></svg>