<svg xmlns="http://www.w3.org/2000/svg" width="193.78" height="43.765" viewBox="0 0 193.78 43.765">
    <g data-name="Group 385">
        <path data-name="Path 568" d="m130.468 38.957.828 2.53h-1.668zm-1.551 4.73.426-1.3h2.253l.425 1.3h1.116l-2.176-6.253h-1l-2.165 6.253zm-3.752-6.253v4.3l-2.582-4.3h-.9v6.253h1.009v-4.25l2.557 4.25h.927v-6.253zm-7.9 0h-1.047v6.253h3.829v-.905h-2.782zm-4.464-.493h.935l.934-1.164h-1.143zm1.046.493h-1.051v6.252h1.047zm-5.519 5.348h-1.062v-4.433h1.061c.9 0 1.3.552 1.3 1.84v.743c0 1.288-.4 1.85-1.3 1.85m0 .905c1.405 0 2.346-.751 2.346-2.755v-.743c0-2-.94-2.755-2.346-2.755h-2.109v6.253zm-10.982-6.746h.933l.935-1.164H98.07zm.434 2.017.835 2.529h-1.668zm-1.549 4.73.426-1.3h2.256l.426 1.3h1.114l-2.175-6.253h-1l-2.176 6.253zm-3.752-6.253v4.3l-2.583-4.3h-.9v6.253h1.009v-4.25l2.555 4.25h.929v-6.254zm-6.853-.442 1.25-1.28h-1.06l-.644.676-.643-.676h-1.061l1.251 1.28zm-2.367.442v6.253h3.829v-.905h-2.781v-1.877h2.51V40h-2.51v-1.651h2.781v-.915zm-3.3 0v4.3l-2.583-4.3h-.9v6.253h1.008v-4.25l2.556 4.25h.927v-6.254zm-8.213-.493h.933l.934-1.164H72.47zm.434 2.017.834 2.529h-1.668zm-1.549 4.73.425-1.3h2.257l.426 1.3h1.114l-2.175-6.253h-1l-2.176 6.253zm-5.889-3.443v-1.897h1.007c.889 0 1.325.245 1.325.952s-.435.943-1.325.943zm3.578 3.443-1.323-2.713a1.63 1.63 0 0 0 1.13-1.676c0-1.242-.858-1.867-2.3-1.867h-2.13v6.253h1.048V41.15h1.216l1.206 2.537zm-10.36-6.253h-1.042v6.253h1.047v-2.783h2.4v2.783h1.047v-6.255h-1.049v2.564h-2.4zm-2.91 1.941a2.131 2.131 0 0 0-2.275-2.019c-1.4 0-2.335.843-2.335 2.806v.8c0 1.963.939 2.806 2.335 2.806a2.093 2.093 0 0 0 2.266-2.019h-1.002a1.173 1.173 0 0 1-1.259 1.1c-.834 0-1.288-.561-1.288-1.891v-.8c0-1.349.453-1.891 1.288-1.891a1.189 1.189 0 0 1 1.259 1.1z"/>
        <path data-name="Path 569" d="m184.495 24.265-8.514-13.337 7.057-9h-4.6l-8.223 10.78V1.928h-3.755v22.337h3.755v-5.956l3.3-4.241 6.475 10.2zm-35.35-12.3V5.198h3.598c3.172 0 4.727.874 4.727 3.4s-1.555 3.367-4.727 3.367zm12.787 12.3-4.758-9.68a5.832 5.832 0 0 0 4.045-5.989c0-4.435-3.075-6.669-8.222-6.669h-7.607v22.338h3.753v-9.064h4.338l4.306 9.065zm-34.831-12.588c0-4.823 1.618-6.766 4.6-6.766s4.63 1.943 4.63 6.766v2.849c0 4.824-1.651 6.766-4.63 6.766s-4.6-1.942-4.6-6.766zm12.981 2.849v-2.849c0-7.024-3.367-10.035-8.384-10.035-4.986 0-8.352 3.011-8.352 10.035v2.849c0 7.024 3.367 10.036 8.352 10.036 5.018 0 8.384-3.011 8.384-10.036m-33.667-6.512 4.888 16.251h3.658l5.276-22.337h-4.014l-3.432 16.056-4.66-16.056h-3.464l-4.564 15.96-3.431-15.96h-4.014l5.277 22.337h3.625z"/>
        <path data-name="Path 570" d="M60.726 1.935v22.336h3.755v-9.084h5.368l1.16-3.233h-6.532V5.205h8.832l1.112-3.27z"/>
        <path data-name="Path 571" d="m76.723 1.928-1.1 3.27h4.912v19.067h3.755V5.198h6.41v-3.27z"/>
        <path data-name="Path 572" d="M24.193 11.963V5.198h3.593c3.173 0 4.726.874 4.726 3.4s-1.554 3.367-4.726 3.367zm12.787 12.3-4.759-9.68a5.832 5.832 0 0 0 4.047-5.986c0-4.435-3.075-6.669-8.222-6.669h-7.608v22.337h3.755v-9.064h4.338l4.306 9.065zM16.48 8.854c-.745-4.856-3.69-7.219-8.126-7.219C3.367 1.637 0 4.648 0 11.677v2.849c0 7.019 3.367 10.031 8.352 10.031 4.435 0 7.348-2.2 8.093-7.22h-3.593c-.583 2.72-1.943 3.95-4.5 3.95-2.978 0-4.6-2.007-4.6-6.766v-2.844c0-4.823 1.619-6.766 4.6-6.766 2.461 0 3.917 1.23 4.5 3.95z"/>
        <path data-name="Path 573" d="m48.488 7.354 2.979 9.032H45.51zm-5.535 16.9 1.521-4.629h8.061l1.521 4.629h3.982L50.269 1.916h-3.561l-7.77 22.336z"/>
        <path data-name="Path 574" d="M190.097 2.939v-.806h.514c.354 0 .55.122.55.378 0 .318-.184.427-.611.427zm0 1.756V3.561h.453l.683 1.134h.84l-.791-1.256a.949.949 0 0 0 .632-.94c0-.476-.341-.987-1.218-.987h-1.329v3.183zm-1.792-1.549a2.33 2.33 0 1 1 2.33 2.329 2.34 2.34 0 0 1-2.33-2.329m-.8 0A3.138 3.138 0 1 0 190.635 0a3.149 3.149 0 0 0-3.132 3.146"/>
    </g>
</svg>
