<svg xmlns="http://www.w3.org/2000/svg" viewBox="0 0 1593.832 198">
    <g data-name="Group 391">
        <path data-name="Path 569" d="M955.293 198.344 881.746 83.126l60.965-77.75H903L831.968 98.5V5.376h-32.44v192.968h32.44v-51.459l28.525-36.638 55.933 88.1zM649.906 92.069V33.62h31.047c27.4 0 40.835 7.554 40.835 29.366S708.356 92.07 680.953 92.07zm110.467 106.275-41.1-83.623c22.365-8.108 34.947-25.168 34.947-51.736 0-38.314-26.568-57.609-71.031-57.609h-65.718v192.968h32.436v-78.308h37.473l37.2 78.308zM459.475 89.553c0-41.666 13.981-58.449 39.708-58.449s39.995 16.784 39.995 58.449v24.61c0 41.67-14.263 58.449-39.995 58.449s-39.708-16.779-39.708-58.449zm112.138 24.61v-24.61c0-60.684-29.084-86.693-72.43-86.693-43.07 0-72.153 26.009-72.153 86.693v24.61c0 60.684 29.084 86.7 72.153 86.7 43.346 0 72.43-26.014 72.43-86.7M280.77 57.953 323 198.344h31.6L400.18 5.376h-34.675l-29.647 138.71-40.267-138.71h-29.924l-39.431 137.875L196.594 5.376h-34.68L207.5 198.344h31.318z" transform="translate(638.539 -2.86)" style="fill:#fff"/>
        <path data-name="Path 570" d="M106.117 3.381v192.962h32.441v-78.476h46.377l10.05-27.967h-56.428V31.629H214.8l9.61-28.248z" transform="translate(418.492 -.805)" style="fill:#fff"/>
        <path data-name="Path 571" d="m141.655 3.369-9.507 28.248h42.432v164.719h32.44V31.617h55.374V3.369z" transform="translate(521.15 -.854)" style="fill:#fff"/>
        <path data-name="Path 572" d="M209 92.069V33.62h31.041c27.408 0 40.83 7.554 40.83 29.366s-13.422 29.084-40.83 29.084zm110.471 106.275-41.111-83.623c22.375-8.108 34.957-25.168 34.957-51.736 0-38.314-26.567-57.609-71.031-57.609h-65.722v192.968H209v-78.308h37.473l37.2 78.308zM142.344 65.225C135.912 23.273 110.462 2.86 72.148 2.86 29.084 2.86 0 28.869 0 89.553v24.61c0 60.684 29.084 86.7 72.148 86.7 38.314 0 63.482-19.018 69.914-62.37h-31.037c-5.038 23.5-16.784 34.121-38.877 34.121-25.727 0-39.713-17.338-39.713-58.449V89.553c0-41.666 13.986-58.449 39.713-58.449 21.258 0 33.84 10.629 38.877 34.121z" transform="translate(0 -2.86)" style="fill:#fff"/>
        <path data-name="Path 573" d="m150.542 50.329 25.732 78.026h-51.459zm-47.82 145.983 13.14-39.99H185.5l13.14 39.99h34.4L165.927 3.349h-30.764L68.042 196.312z" transform="translate(268.337 -.933)" style="fill:#fff"/>
    </g>
</svg>
